<svg xmlns="http://www.w3.org/2000/svg" width="422.7" height="156.1"><path d="M51.5 71c.8 0 1.6 0 2 .4l1.6 1.2c.4.4.8 1.2 1.3 2 0 .8.4 1.2 0 2v3.7c0 .4-.5.8-.5 1.2A52.8 52.8 0 0 1 47 92.8c-.8.4-1.2 1.3-2 1.3-.8.4-1.6.4-2 1.2-2.9 1.2-5.7 2.4-8.5 2.8-2.9.4-5.7.4-9-.4a23 23 0 0 1-10.9-5.3c-.8-.4-1.2-1.2-2-2a4.9 4.9 0 0 1-2-2c-2-2-3.7-4-5-6.5L2 74.6.8 70.1C0 69 0 67.7 0 66.1a23.8 23.8 0 0 1 6.9-17.4l2.8-2.9c.8-1.2 2-2 2.9-2.8.8-.8 2-1.2 3.2-1.6 1.2-.5 2-.9 3.3-1.3.4-.4.8-.4.8-.4.4 0 .8 0 1.2-.4 1.6-.8 3.6-1.2 5.3-1.2 2 0 3.6.4 5.2.8 1.2.4 2 .4 2.9.8l3.2 1.2c2 .5 2.8 1.7 3.2 2.5.5 1.2.9 2 .5 3.2a6 6 0 0 1-1.7 3.7 5 5 0 0 1-3.6 1.6H34.9c-.4-.4-1.2-.4-1.7-.4-.8 0-1.2-.4-2-.4-1.2-.4-2-.4-3.2-.4-1.2 0-2.5.4-3.7.8 0 0-.4 0-.4.4h-.4l-2 .8c-.4 0-1.2 0-2 .8l-1.7 1.6-1.6 1.7a15.4 15.4 0 0 0-4.4 10.5v2.8c.4.8.4 1.7.8 2.5l2 4.4c.8 1.2 1.6 2.9 2.8 3.7l1.2 1.2 1.3 1.2c1.6 1.6 4 2.4 6.5 2.8 3.6.9 6.8.5 10-1.6.5-.4.9-.4 1.3-.8s.8-.4 1.2-.8c1.2-1.2 2-2 2.9-3.2l2.4-3.7V75c0-.4 0-.4.4-.8 0-.4 0-.8.4-1.2 0-.4.8-.8 1.6-1.2.8-.4 1.6-.9 2-.9zm87.2 64.8c.8.4 1.2.8 1.6 1.2.4.4.8 1.2.8 2 .4.9.4 1.3 0 2l-.8 2.1c-.4.4-.4.8-.8 1.2 0 .4-.4.8-.4 1.2-.4.5-.4.9-.9 1.3 0 .4-.4.8-.8.8-2 1.2-4 2.8-6 4-2 1.2-4.1 2.5-7 2.9-.7.4-1.6.4-2.4.4h-2.4c-3.2 0-6 0-9-.8-2.8-.9-5.2-2-7.6-3.7-3.7-2.4-6.1-5.7-7.7-9.3-.4-.8-.8-1.6-1.2-2.9-.4-.8-.9-1.6-1.3-2.8-.8-2.8-1.2-5.3-1.6-8.1-.4-2.8-.4-5.7-.4-8.1 0-1.6.4-3.2.8-4.5.4-1.2.8-2.8 1.6-4a23.2 23.2 0 0 1 13.8-13c1.2-.4 2.5-1.2 3.7-1.6l3.6-1.2c1.2-.4 2-.4 3.7-.4 1.2 0 2.4.4 3.6.4.4 0 .8 0 .8.4.4 0 .4.4 1.3.4 2 0 3.6.4 5.2 1.2 1.6.8 3.3 2 4.5 2.8.8.4 1.6 1.3 2.4 2 .8.9 1.6 1.3 2 2 1.3 1.3 2 2.5 2 3.7 0 1.3-.3 2.5-.7 3.3-.9 1.2-1.7 2-3.3 2.8a7 7 0 0 1-4 0c-.4 0-.4-.4-.8-.4-.5 0-.5 0-.5-.4l-1.2-1.2-1.6-1.2a6.5 6.5 0 0 0-2.8-1.6c-.8-.5-2-.9-3.3-.9h-.8c-.8 0-1.6 0-2-.4h-2c-.8.4-1.7.4-2.5.8-.8.5-1.2.9-2 .9-4 1.6-6.9 4-8.5 7.7-.4.8-.4 1.6-.8 2.4-.4.8-.4 1.6-.4 2.8v4.9c0 1.6.4 3.2 1.2 4.9l.4 1.6c.4.4.4.8.8 1.6 1.2 2 2.4 4 4.5 5.3 2.8 2 6.5 2.8 10.1 2.8h3.2c1.7-.4 2.9-1.2 4.1-1.6l3.6-2.4c.5 0 .5-.4.5-.4.4 0 .4-.5.4-.5l.8-.8c.4-.4 1.2-.4 2-.4h2c.8-1.6 1.6-1.6 2.5-1.2zm182.4-6c-1.6 1.2-3.7 2-5.3 2.4-2 .4-3.6.8-4.8.8-1.3 0-3.3.4-4.5.4-1.2 0-2.4.4-3.6.4-.9.4-1.3.8-1.7 1.2-.4.4-.4 1.2-.8 2v4.5c.4 1.2.4 2.8.4 4v5.3c0 .4-.4.8-.4 1.2-.8.8-1.6 1.7-2.8 2-1.2.5-2 .5-3.7.5-2 0-3.2-.8-4-2a8.6 8.6 0 0 1-1.2-5v-19.4c0-1.6.4-3.2.4-4.9v-5.6c0-2-.4-3.7-.4-5.7v-10.5c0-1.7 0-3.7.4-5.7.4-1.6 1.2-2.9 3.6-2.9 2.9.4 4.9.4 7.3.4 2.4.5 4.5.5 6.5.5 1.2 0 2 0 3.2.4 1.3 0 2 .4 3.3.4 2.8.4 5.3.8 7.7 2a12 12 0 0 1 5.7 5.3c.8 1.2 1.6 2.8 2.4 4.4a22.9 22.9 0 0 1 2 9.8 14 14 0 0 1-1.2 5.2l-1.2 2-1.6 1.7c-1.2 1.2-2 2-3.3 2.8-.4.4-1.2 1.2-2.4 2zm-19.5-13c0 .8.4 1.2.8 2 .5.4.9.8 1.7 1.2 1.6 0 2.8.4 4.4.4 1.2 0 2.9 0 4-.4.9-.4 1.7-.4 2.5-1.2.8-.4 1.6-1.2 2-1.6.4-.8.9-2 .9-2.9-.5-1.2-.5-2-1.3-3.2-1.2-1.6-2.4-2.9-4-3.3-1.6-.4-3.3-.8-5.3-.8-2.4 0-3.6.4-4.4 1.2-.5.9-.9 2-1.3 4.5v3.3zm-96.5 31.6c.4 2 0 3.2-1.6 4l-2.4 1.3c-.8 0-1.6 0-2.4-.5-.9-.4-1.7-.8-2.5-1.6a8.5 8.5 0 0 1-1.6-2.4l-1.2-1.2-1.2-1.2c-.4-.8-1.2-2-1.2-2.9a4.9 4.9 0 0 0-2.9-2.8c-1.2-.4-2.4-.8-3.6-.4h-3.7c-1.2-.4-2.4-.4-3.6-.4a5.6 5.6 0 0 0-3.7 0c-1.2.4-2.4.4-3.6.8a3 3 0 0 0-1.6.8l-1.3 1.2c-.8 1.2-1.2 2.4-2 3.7-.8 1.2-1.2 2.8-1.6 4-.4 1.6-1.2 2.4-2 3.3l-3.3 1.2c-.8 0-1.6 0-2.4-.4-.8-.4-1.2-1.2-2-1.7l-1.3-2.4c-.4-.8-.4-1.6 0-2.4l3.7-9.7 3.6-9.8 2.5-5.7c.8-2 1.6-4 2.4-5.6.8-2 1.6-4 2-5.7.4-2 1.2-3.7 2-5.7.5-1.2 1.3-2.8 1.7-4l1.6-4c.4-.9.8-1.7 1.6-2.1l2.5-1.2c.8-.4 2-.4 2.8-.4.8 0 2 0 2.8.4 1.2.4 2 1.2 2.5 2 .8.8 1.2 2 1.6 2.8.8 2 2 4 2.8 5.7l2.5 6c.4.5.4 1.3.8 2.1 0 .4.4 1.2.4 2 0 .5.4.9.4 1.3s.4.4.4.8c1.2 2 2 4 2.8 6 .8 2 1.2 4.1 2 6.1.5 1.7 1.3 2.9 2 4.5.9 1.2 1.3 2.8 2.1 4.5.4 2 1.2 3.6 1.6 5.6.8.4 1.2 2 1.6 4zm-23-20.3c1.2.4 2 0 2.8-.4.4-.4.8-1.2.8-2.8 0-.4-.4-1.2-.4-1.7 0-.4-.4-.8-.4-1.2-.4-1.2-.8-2-1.2-2.8l-1.3-2.8c-.4-.4-.8-1.3-.8-2-.4-.5-.8-.9-1.6-.9s-1.6.4-2 .8c-.4.4-.4 1.2-.8 1.7-.8 1.2-1.2 2.8-1.7 4l-1.6 4c-.8 2 0 3.3 2.5 3.3h2.8c.8.8 2 .8 2.8.8zm62-15.4c.8.4 1.6.4 2.4 0 .8-.4 1.6-1.2 2-1.6.4-.4 1.2-1.2 2-1.6 2-1.7 4.1-3.3 5.7-4.9a16 16 0 0 0 4-6c1.3-3 3.7-4.1 6.6-4.1 2 0 3.6.4 4.8.8 1.2.4 2 1.6 2.9 3.2V109c-.4 2.9-.4 5.3-.4 8.2 0 2.8.4 5.2.4 8 0 3 .4 5.8 0 9v12.6a9 9 0 0 0 .4 3.6c0 1.6-.4 2.8-1.6 4a6.1 6.1 0 0 1-4.5 1.7c-.8 0-1.6-.4-2-.4-.4-.4-.8-.4-1.7-.8a6.3 6.3 0 0 1-3.2-2.5 7.8 7.8 0 0 1-1.2-4v-19.5c0-.4-.4-.8-.8-1.2-.4 0-1.2 0-1.2.4-1.3 1.2-2.5 2.4-3.3 3.7l-1.6 1.6c-.4.8-1.2 1.2-1.6 1.6-1.6 1.2-2.9 2-4 2.4-1.3.4-2.1.8-3 .4-.7-.4-2-.8-2.8-1.6-1.2-.8-2.4-2-4-4-.8-.4-1.2-1.2-2-2.5-.8-1.2-1.7-1.6-2.5-2.4-.4-.4-1.2-.8-2-.4s-1.2.8-1.2 1.6c0 2.9-.4 5.3 0 7.7V148c-.4 1.6-.8 3.2-1.6 4.4-.8 1.3-2 2-3.3 2.5-1.2.4-2.8.4-4.4 0a6.1 6.1 0 0 1-3.3-1.7c-.8-.8-.8-2-.8-3.6v-8.1c0-2.8 0-5.3.4-8.1.4-2 .4-4.5.4-6.5s0-4-.4-6.5c0-2-.4-4.4-.4-6.9-.4-2.4-.4-4.8-.4-7.7-.4-1.2-.4-2.8-.4-4 .4-1.3.4-2.9.4-4 0-1.3.4-2.5.8-3 .8-.7 1.6-1.1 2.9-1.1h5.2c.8 0 1.2 0 2 .4a3 3 0 0 1 1.7.8c.4.4 1.2 1.2 1.6 2a90 90 0 0 0 4.9 6.5c1.6 2 3.6 4 5.2 6l1.2 1.7zM107 59.6c1.6 0 2.8 0 4 .8 1.2.8 1.6 2 2 3.7v5.2c-.4 2-1.6 3.3-3.6 4l-4.5 1.3-4.9 1.2-5.6 1.2c-1.7.4-3.7.8-5.3 1.7-1.6.4-3.3 1.2-4 1.2-1.3.4-2.9.8-4.1 1.6-1.2.4-2 .4-2.9 0-1.2-.4-1.6-1.2-2.4-2l-1.2-1.7c-.4-.4-.4-1.2-.8-1.6-.4-1.6-1.2-2.8-1.2-4.4l-1.2-5-1.3-5.6c-.4-2-.8-4-1.6-5.7-1.2-3.6-2-6.8-2.8-10.5-.8-3.6-1.6-7.3-2.9-10.5-.4-.4-.4-1.3-.4-1.3 0-.4 0-.8-.4-1.2-.4-.4 0-.8-.4-1.2 0-.4 0-.8-.4-1.2 0 0 0-.4-.4-1.2v-1.2c.4-.8.4-2 1.2-2.9.4-.8 1.2-1.6 2.5-1.6l2.4-.4h2.4c.8.4 1.2.4 2.5 1.2 1.2.4 2 1.6 2.4 2.4l1.2 4.1c.4.8.4 1.2.4 1.6 0 .4.4.4.4.8s0 .4.4.8c0 .5.4.9.4 1.7.4 1.6 1.2 3.6 1.7 5.2.4 1.7 1.2 3.3 1.2 4.9.8 2.8 1.2 5.7 2 8.5.4 2.9 1.2 5.7 2 8.5.4.4.4 1.2.4 1.7.4.4.4 1.2.8 2l5.3-1.2c.8-.4 1.6-.4 2.4-.8.9-.5 1.7-.5 2.9-.5 1.6-.4 3.6-.4 5.3-.8 1.6-.4 3.6-.4 5.2-.8h1.2c-.8-2-.4-2-.4-2zm66-30.4c1.2 4.5 1.6 9 1.2 12.6-.4 3.6-1.2 7.3-2.4 10a18.3 18.3 0 0 1-5.7 7.8c-2.4 2-4.8 3.6-7.7 4.9a23.8 23.8 0 0 1-8 2c-3.3.4-6.6 0-9.8-.8-3.3-.8-6.1-2-9-4-2.8-2.1-4.8-4.5-6-7.8-.8-1.6-1.2-3.2-1.6-4-.4-.8-.9-2-.9-2.9-.4-.8-.4-2-.8-2.8-.4-1.2-.4-2.4-1.2-4-.8-2.9-.8-5.3-.8-8.6 0-2.8.4-5.7 1.2-8 0-.5.4-.9.8-2.1.4-.8 1.3-2 2-2.9.9-1.2 1.3-2 2-2.8l1.3-1.2c1.6-1.6 2.8-2.8 3.7-4 .8-1.3 2-2 4-2.9.8-.8 2-1.6 3.7-2l5.2-1.2C146 4 148 4 149.6 4c2 0 3.2.4 4.5.8.8.4 1.6.8 2 1.2.4.4 1.2.4 1.6.8.4.4.8.8 1.6 1.2a43 43 0 0 1 6.5 4.9 18 18 0 0 1 3.3 4.4c1.2 1.7 2 3.3 2.4 5.3.8 1.6 1.2 4 1.6 6.5zm-10.5 4.5c-.4-2.9-.8-5.3-2-7.3-1.3-2-2.5-3.7-3.7-5a11 11 0 0 0-4.9-2.3c-1.6-.5-3.6-.5-5.6-.5-.4 0-1.3.5-2.5.5l-2 .8a6 6 0 0 0-3.7 2.8c-1.2 1.2-2 2.4-2.8 4-.8 1.7-1.2 3.3-1.6 5-.4 1.5-.4 3.2-.4 4.4.4 3.2 1.2 5.7 2.4 8 1.2 2.5 3.3 4.6 6.1 6.2.8.4 1.6 1.2 2.8 1.6 1.3.8 2.9.8 5.3.4 1.6-.4 3.2-.8 4.9-1.6 1.6-.8 2.8-2 4-3.7 1.2-1.6 2-3.2 2.9-5.6 1.2-2 1.2-5 .8-7.7zm62-21.1c0 4.4 0 8.9.4 13.3.4 4.5 0 9 0 13.4a28 28 0 0 1-1.2 8.1c-.4 2.5-1.6 4.9-2.8 7.3-2 3.7-5 6.1-8.6 7.7-1.2.4-2.4.8-3.6.4a7 7 0 0 0-4 0c-2.5 0-4.5-.4-6.5-1.6-2-1.2-4.1-2.4-5.7-3.6-1.2-.8-2-1.2-3.3-1.7-.8-.4-1.6-.8-2-1.6-.8-.4-.8-1.2-1.2-2.4 0-.8 0-1.6-.4-2-.4-1.7-.4-3.3.4-4.5a8.3 8.3 0 0 1 3.2-3.2c.4-.4 1.2-.4 2-.4.9 0 1.3 0 2 .4l2.1.8c.8.4 1.2.8 1.6 1.6 2 2 4.5 3.6 7.3 4 2.5.5 4-.4 6.1-1.6a8 8 0 0 0 2.4-5.6c0-2.5-.4-5-.4-7.3V17a7 7 0 0 0-1.6-4.8c-1.2-1.7-2.4-2-4.4-2.5-2.9-.4-4-2-3.7-5.2 0-1.3.4-2 1.2-2.9.8-1.2 2-1.6 3.3-1.6h4.8c1.7.4 3.3.4 4.9.4h2.8c1.7-.4 2.9 0 4 .8 1.3.8 1.3 2 1.3 3.7v3.6c-.4 1.6-.4 2.9-.4 4zm75 7.7c-.4 1.2-.4 2-.4 2.8 0 .8-.4 1.6-.4 2.4V28c0 .8 0 1.6-.4 2.8v4.5l-.4 1.6c0 .4-.4.8-.4 1.2v.4l-.4 1.2v.4a33.8 33.8 0 0 1-4.5 11.8c-1.2 2-2.8 3.6-4 5.7l-4.9 4.8c-1.6 1.3-3.2 2-5.3 2.5-6 1.6-11.7 1.6-17.8-.4a28.3 28.3 0 0 1-9.7-5.3 24.2 24.2 0 0 1-6.5-9c-.8-1.1-1.2-2.8-1.7-4-.4-1.2-.4-2.8-.8-4.4v-11c0-.8 0-1.6.4-2.4l.4-2.5c.5-1.6.5-2.8.9-4 0-.8.4-2 .4-3.7.4-1.2.4-2.4.4-3.6 0-1.2.4-2.4.4-3.7.4-.8.4-1.6.4-2.4 0-.8.4-1.6.4-2.4l1.2-2c.8-.5 1.2-1.3 2-1.7.8-.4 1.7-.8 2.9-.8.8 0 2 0 2.8.4.4 0 .8.4.8.4.4 0 .4.4.8.4 2 .8 2.9 2 2.9 4v2.5c-.4 3.3-.4 6.5-1.3 9.8-.4 1.2-.4 2-.4 3.2-.4 1.2-.4 2.4-.4 3.6-.4 1.7-.4 3.7-.4 5.7s-.4 4-.4 5.7c0 3.6 1.6 6.5 4.9 9.3.4.4.8.8 1.2.8.8.8 2 1.3 2.8 1.7 1.3.4 2 .4 3.3.4h1.6c.8 0 1.2 0 2 .4.8 0 1.3 0 2-.4 1.7-.4 2.9-1.3 4.1-2 1.2-.9 2-1.7 2.9-2.9.4-1.2 1.2-2.4 1.6-4a42 42 0 0 0 1.2-5v-2.4c0-.8 0-1.6.4-2.4v-2.4l.4-2c.4-1.3.4-2.5.4-3.3v-6.5c0-.8 0-1.2.4-2 0-.4 0-1.2.4-1.6 0-.4.4-1.2.4-2 0-.9.4-1.7.8-2.5s.9-1.2 1.3-1.2c.4-.4.4-.4.8-.4s.4-.4.4-.4c.8-.4 1.6-.4 2.4-.4.8 0 1.6 0 2.4.4 2 .4 3.3.4 4 .8 1.3.4 1.7 1.6 2.1 3.2.4 1.7.4 2.9.4 4.1l-.4 1.6c-.4 1.2 0 1.6 0 1.6zm44.6 35.6c.8 1.3 1.6 2 2 3.3.4 1.2 1.2 2.4 1.7 4 .8 2.9 1.2 5.3.8 7.3-.4 2-.8 4.1-1.7 6.5 0 .8-.4 1.2-1.2 1.7-.4.4-1.2 1.2-2 1.2-.8.4-1.2.4-2 .4s-1.2 0-2-.4c-1.7-.8-2.9-1.2-3.7-2-.8-.9-1.2-2-1.2-4.1v-7c-.4-2-1.2-4-2.5-6l-1.2-1.2c-.8-.8-1.2-1.2-1.6-1.2-.8-.4-1.6-.8-2.4-.8l-2-.8c-.5-.4-.9-.4-1.3 0s-.8.4-.8.8c-.4 1.2-.8 2-1.2 2.8-.4.8-.4 1.6-.8 2.4-.4 1.3-.4 2.5-.8 3.7-.4.8-.4 2-.8 3.6 0 .4-.4.8-.4 1.3-.4.4-.4.8-.8.8-1.3.8-2 1.2-3.3 1.2-1.2.4-2.4 0-3.6-.4-2.5-1.2-3.7-2.5-3.7-3.7-.4-1.2 0-2.4.8-4.4.4-1.2 1.2-2.5 1.2-3.7.4-3.6 1.3-6.9 2.5-9.7l3.6-9.7 3.7-11 1.2-5.3 1.2-5.2c.4-1.7 1.2-3.3 2-5.3.8-1.6 2-2 4-2 2.1.4 4.5.8 6.6 1.6l6 2.4 3.3 1.2 3.2 1.3c2.5 1.2 5 2.4 7 4a10 10 0 0 1 4 6.5l1.2 4.9c.4 1.6.4 3.2.4 4.8 0 1.7-.4 3.3-.8 4.9-.4 1.6-1.2 3.2-2.4 4.9l-2 2-2 2-3.3 2c-2 0-3.3 0-4.9.4zm-14.6-21c0 .4-.4.8-.4 1.2 0 .4-.4.8-.4 1.2-.4.8-.4 1.2 0 2s.4 1.2 1.2 1.6l4 1.7c1.3.4 3 .8 4.1.8.8 0 1.6 0 2.5-.4.8-.4 1.6-.4 2.4-1.2.8-.9 1.2-1.7 1.6-2.5 0-1.2 0-2-.4-3.2-.4-2-1.6-3.3-2.8-4-1.3-.9-2.9-1.7-4.9-2.1-2-.4-3.6-.8-4.5-.4-.8.4-1.6 1.6-2 3.6-.4.5-.4.5-.4.9.4 0 .4.4 0 .8zm72 55.3c1.1.8 2.3 1.7 3.1 3.3.4 1.2-1.7 5.4-2.5 6.6a5 5 0 0 1-3.3 2.5 7 7 0 0 1-4 0c-.4-.4-1.2-.8-2.5-1.2-1.2-.4-2-.9-3.2-1.7-1.2-.4-2-1.2-3.2-1.6-.8-.4-1.7-.8-2.5-.8-2.8-1.2-5.2-2.4-7.7-3.2-2.4-1.3-5.2-2.5-7.7-3.7-2.8-1.2-3.6-3.2-2.4-6 0-.5 0-.5.4-.9 0-.4.4-.4.4-.8s0-.8.4-1.2c0-.4.4-.8.4-1.2l1.6-2.9c.4-.8.8-2 1.3-2.8 2-3.7 3.6-7.3 5.2-11 1.6-3.6 3.7-7.2 5.3-10.9l6-12.2.5-.4c0-.4 0-.4.4-.4.4-.4.4-1.2.4-2 0-.4.4-1.2.8-1.2.8-.4 1.6-.4 2.4-.8.8-.4 1.7-.4 2.5 0l4 1.2c1.2.4 2.5 1.2 4 1.6v.4c3 1.2 5.8 2.9 8.2 4 2.8 1.3 5.7 3 8 4.1 4.6 2 5.8 5.7 4.1 10.6l-1.2 2c-.4.4-1.2.8-2 1.2-.8.4-1.6.4-2.4.4-.8-.4-1.7-.4-2.5-.8-2-1.6-4-2.8-6-3.6-2-1.3-4.1-2-6.5-2.5-.4 0-.8-.4-1.2-.4-.5-.4-.9-.4-1.3-.4-1.2-.4-2-.4-3.2-.4-.8.4-1.6 1.2-2.4 2l-1.3 2.5-1.2 2.4c-.4 1.2-.5 1.4.5 2l1.7.9c.6.2.9.4 1.3.8L399 66l4.9 2.4c.4 0 .8.4.8.4.4 0 .4.5.8.5 2.9 1.6 4 4 2.9 7.3-.5 1.2-1.7 2.4-3.3 3.2-1.6.8-2.8.8-4.5.4-1.2-.4-2.8-1.2-4.4-2-1.2-.8-2.9-1.2-4.5-2-.4-.5-1.2-.9-1.6-1.3-.4-.4-1.2-.8-2-1.2-1.2-.4-1.6-.4-2.5-.4-.4 0-1.8 2-2.2 2.8-.8 1.2-1.2 2.5-2 3.7-.8 1.9-1.3 1 .3 2.6.4.8 1.4 1 3 1.8.9.4 2 .8 3.7 1.7l4.5 2c1.2.8 2.8 1.2 4 2 1.2.8 3.7-.6 4.5.2z" style="fill:#fff"/></svg>