<svg viewBox="0 0 102 102" xmlns:xlink="http://www.w3.org/1999/xlink" xmlns="http://www.w3.org/2000/svg"><defs><linearGradient xlink:href="#a" id="b" x1="23.2" y1="391.8" x2="41.3" y2="391.8" gradientUnits="userSpaceOnUse" gradientTransform="translate(-58 -488)"/><linearGradient id="a"><stop offset="0" stop-color="#567ed2"/><stop offset="1" stop-color="#5fad31"/></linearGradient></defs><g transform="matrix(5.42252 0 0 5.42252 -330 -331)" stroke-width=".2"><circle cx="-25.5" cy="-96.2" r="9.2" transform="rotate(150)" fill="url(#b)"/><path style="-inkscape-stroke:none" d="m 67.660156,66.246094 c -1.53469,0.881289 -2.484375,2.513912 -2.484375,4.279297 0,1.765385 0.949685,3.398007 2.484375,4.279296 l 0.646485,-1.126953 c -1.13482,-0.651665 -1.830079,-1.851819 -1.830079,-3.152343 0,-1.300525 0.695259,-2.500679 1.830079,-3.152344 z" color="#000" fill="#fff"/><path style="-inkscape-stroke:none" d="m -72.505859,-74.804687 c -1.534803,0.881276 -2.482422,2.513891 -2.482422,4.279296 0,1.765406 0.947619,3.398021 2.482422,4.279297 l 0.648437,-1.126953 c -1.134941,-0.651678 -1.832031,-1.851839 -1.832031,-3.152344 0,-1.300504 0.69709,-2.500665 1.832031,-3.152343 z" transform="scale(-1)" color="#000" fill="#fff"/></g></svg>
