<svg xmlns="http://www.w3.org/2000/svg" width="300" height="300"><circle cx="150" cy="150" r="147.5" style="fill:#fff"/><path d="M136 1.3c.8-.4 1.6-.4 2-.4h2.3c.3 0 .3-.4.7-.4 1.2-.3 1.2-.3 2 0H154c2.6 0 4.5-.3 6 .4.8.4 1.2 0 2 0h.7c1.1 0 1.9 0 2.3.4l1.5.4c2 .4 3.8.4 5.7.4h3.9c1.9.3 1.9.3 2.6.7h.4c.4 0 0 0 0 0 .4 0 .8-.4 2 0l1.8.8c.4.4.8.4 2.7.8h1.1c.4 0 .4 0 .8.3.8.4.8.4 1.1 1.2.4.4 1.2.7 1.6.7h.4c.3.4 1.1.4 2.2.4 2.7.4 2.7.4 3.9 1.2.3 0 .7.4 1.5.7.8 1.2 1.9 1.2 2.7 1.2h1.1c1.2 0 1.5.4 2 .7h.3c2.3.8 3.8 1.6 6.1 2.3.4 0 .4.4.4.4.8.4 1.1.8 1.1 1.2l.8.3s.4.4.8.4l1.9.8c1.5.4 3.4 1.1 5 1.9l4.1 2.7.4.4.4.3c.4.4.8.8 1.1.8.4.4.8.4 1.2.8a3 3 0 0 0 1.9.7c.8.4 1.5.4 2.3 1.2l1.5.7.4.4c.4.4 1.1.4 1.5 1.2h.4l.8.7c.4 0 .4.4.7.4h.4c.8.4 1.2.8 1.5 1.2l.4.3c.4.4.8.4 1.2.8l1.1.8a8 8 0 0 0 2.3 1.5l2 1.5c1 .4 1.4 1.2 1.8 1.5 0 0 0 .4.4.4.8.4 1.1.8 1.5 1.2 1.2.7 1.6 1.1 3 3.4 0 .4.5.4.8.8.4.4.8.4 1.2 1.1l.4.4.4.4.3.4c.4.3.8.7 2 2.6l.3.4.4.4 4.2 5c.4 0 .4.3.4.3.4 1.2.8 1.6.8 2 0 .3 0-.4.3 0 1.6 1.1 1.6 1.9 1.6 2.6l1.1 1.2c.8.7 2 1.5 2.3 2.6l.4.8v.4c.4.4-.8.4-.4.4.8 0 2 0 3 1.9.4.4.4.4.4.7v.4l4.6 6.1.4.4c.4.4.4.8.4 1.2v.3l2.7 4.6c2.6 3 2.6 3.8 2.2 4.6 0 0 0 .4.8 1.5.4.4.4 1.2.8 1.6.4.7.4 1.1 1.1 1.9.8.7 1.2 1.5 2 2.6l1 3 .8 2.4v.4c0 .3.4 1.1.4 1.1 0 .4 0 .4.4.8v.4l1.1 3c1.2.4 2 .8 2 3.4l1.1 5.8 1.1 4.6c.4 1.5.4 3 .8 4.5.4.8.4 1.2.4 2 0 .3.4.7.4 1 .7 2 .7 2.8.7 3.9v2.7c0 .7.4 1.1.4 1.5 0 .4.4.8.4 1.1.4 1.2 0 2.7 0 4.2 0 .8-.4 1.2-.4 1.2.8 1.5.8 1.5.4 2.7v.7c0 .4 0 .4.4 1.2 0 .7 0 1.1.4 2.3v5.6c.3.5.7 1.6.3 3.5v2c0 1.5.4 3.4-.3 5.7v1.1c0 .8 0 1.2-.4 2.7-.4.4-.4.7-.4.7V167l-.4 3.4v1.6c0 1.9-.4 2.6-.7 3.4-.4.4-.4.8-.4 1.1 0 .4-.4 1.2-.4 2 0 .7-.4 1.9-.4 3-.4.8-.4 1.1-.4 1.1v7.3l-1.1 3.4c-.4.4-.4 1.2-.4 2-.4 1-.4 2.6-1.5 3.8l-.4.3v.8c-.4 1.1-.8 2-1.2 2.3-.3.4-.7 1.1-1.1 2.3l-.4 1.1c-.7 2.3-1.5 5-2.7 6.9-.3.4-.3.8-.7 1.1-.4 1.2-.8 2.3-2.3 3.1-.4 1.1-.8 2-1.5 3v.4c-.4.4-.8 1.2-1.2 2-.4 1.9-1.1 3.4-2.3 4.5l-1.5 3c-.4 2-1.1 2.4-2 3.1l-.7 1.2c-.4.7-.7 1.1-.7 1.5-.4.4-.4 1.2-.8 2-.4.3-.4.7-.8 1l-.3.4v.4l-2.7 3-.4.5c-.8.7-1.1 1.1-1.5 1.1-.4.4-.8.4-1.2 1.1l-1.1 2s0 .3-.4.3c-1.1 1.6-2 2.7-2.7 3.9-1.1 1.5-1.5 2.6-3.4 3.4l-.8-2c-.4.5-.7.5-1.1.5 0 .3-.4.7-.8 1.5-.7 1.1-1.1 1.1-1.5 1.5l-.4.4c-1.1.8-1.1.8-1.1 1.1 0 1.2 0 2.3-3.9 5.4l-1.1 1.1c-.8.8-1.1 1.2-2.3 2-.8.3-1.5.7-1.9.7-.4.4-.4.8-1.1 1.2-.8.7-1.6 1.1-2.3 1.5-.4.4-.8.4-1.2.4v.3c-1.5 2-2.6 2.7-4.2 3.5a15 15 0 0 0-4.6 3c-.7.8-1.5 1.2-2.2 1.6-.4.3-.8.3-1.2.3h-.4l-2.6 2c-1.2.7-2.3 1.1-3.5 1.5-.7.4-1.1.4-1.5.7l-2.3 2c-.4.3-.8.3-1.1.7-.4.4-1.2.4-1.6.4h-1.5c-.4 0-.8.4-1.1.8-1.6 1.5-3.9 3-7 3.4l-6 2.3a6.2 6.2 0 0 1-3.5 1.1 3 3 0 0 0-1.9.8c-.4 0-.4.4-.7.4-1.2.4-1.6.4-2.3.4 0 0 .4 0-.4.3-.4 0-.4 0-.4.4-.8.4-1.1.4-2.3.4-.7 0-1.1-.4-1.5-.4-.4 0-.8.4-1.2.4-1.1.4-2.2 1.2-3.4 1.2-.7 0-1.1 0-1.5-.4-.4 0-.4 0-.4-.4-.4 0 .4.4.4.4-.4.4-.8.7-2.7.7h-1.1c-.8.4-2.3.4-5.4.4H169c-2 0-2.7.4-3 .4-.8.4-1.2.8-2.3.4H162c-1.9.4-3.8.4-5.3.4h-1.2c-.3 0-.7.3-1.1.3h-8.8c-.8 0-1.9 0-3-.3h-1.2c-.4 0-.8-.4-1.1-.4h-.4c-.4.4-1.2.4-2.7 0-.8 0-1.1-.4-1.5-.4l-5.7.4c-.8 0-1.2-.4-2-.4h-.3s-.4-.4-.8-.4c-3.8 0-4.6-.4-5-.7h-.3c-.8 0-1.2.3-2.7-.4-.4 0-1.2-.4-1.5-.4-.8-.4-1.6-.4-2-.4-2.6 0-4.1-.4-6-1.1-.8-.4-1.2-.8-2-.8-2.3-.4-3.4-1.1-4.5-1.5l-2.7-1.2-3.8-1.1c-1.6-.4-2.3-1.2-3.5-2-.4-.3-.7-.3-1.1-.7-.8-.4-1.5-1.1-2-1.5-.3-.4-.7-.4-1-.4-1.2 0-2.7-.4-3.9-1.1-1.1-.4-1.9-1.2-2.7-2-.7-.3-1.5-.7-1.9-1.1-.7-.4-1.9-.4-2.6-1.1l-.4-.4-1.6-1.2-.3-.4c-.4-.3-.8-.3-1.6-.7l-.3-.4c-.4 0-.4 0-.8-.4a6 6 0 0 1-3-1.9c-.4-.4-.4-.8-.8-.8l-4.6-1.1c-2.3-.8-3-2-3.8-2.7l-1.2-1.1c-.4-.4-.7-.4-1.1-.4-1.2-.4-1.5-1.1-2.3-2l-1.1-1c-2-.8-2.7-2-3.9-3.1l-1.5-1.5c-2.3-2-2.7-3-2.7-4.2 0-.4 0-.4-.3-.4l-1.2-.8c-1.1-1.1-1.5-1.9-1.9-2.3 0-.4-.4-.4-2-1.1-1.4-.8-2.2-2-3-3.5-.3-.7-.7-1.5-1.5-2.6l-.4-.4-1.1-1.2c-.4-.3-.8-1.1-1.2-1.5l-1.5-1.5c-.4 0-.4-.4-.4-.4l-4.2-4.6-.4-.3c-.7-1.2-.7-1.2-.7-2v-.3a4.9 4.9 0 0 0-1.5-2.3c-.8-.8-1.6-1.6-2.3-3.5l-1.2-2.6c-.4-.8-1.1-2-1.9-2.7-.8-1.2-1.1-1.5-1.1-2.7v-.7c0-.8-.4-1.6-1.2-2-.7-1.1-1.1-1.9-1.5-3-1.5-.4-2-1.2-2-2.7 0-.4-.3-1.1-.7-1.9a10.3 10.3 0 0 1-1.9-4.2c0-.4-.4-1.1-.4-1.5 0 0-.4-.4-.4-.8v-.4c-.3-.7-.7-1.1-.7-1.9v-.4l-.8-1.1c-.4-.8-.7-1.1-.7-2 0-.3-.4-1-.4-1.4 0-.4-.4-.4-.4-.4-.8-2.3-1.2-4.6-2.3-6.9-.4-.8-.4-1.1-.4-1.9v-3l-1.5-10.4c-1.2-2.2-1.2-3-1.2-3.8l-.3-1.5c-.4-1.1-.4-2.7-.4-3.8v-.8l-.4-.4c-1.1-1.9-.8-2.3-.4-3v-.4c-.4-.4-.4-.4-.4-1.1v-.4l-.3-3.5v-3.4c-.4-2 0-2.7.3-3.4v-1.2c0-.7-.3-1.1 0-2.3l.4-5c-.4-.3-.4-1 0-3.4.4-.7.4-1.1.4-1.5l-.4-2v-.3c0-1.5.4-3 .8-4.2.4-1.5.7-2.7.4-4.2 0-1.1.3-3 1.1-5.3l1.2-4.2v-.4c.3-2.3 1.1-5.4 1.5-7.6.4-.8.4-1.2.4-2 0-.3.3-.3.3-1.1l.4-1.5c0-.8 0-1.2.4-1.2v-.4c.4-1.1.8-1.1 1.2-1.1V99c0-.3.3-1.1.3-1.9l1.2-2.3 1.1-2.6v.3-.3c0-.4 0-.8.4-1.6 0-.3.4-.3.4-.7l.4-.4c.4-.4.4-.8.4-.8.3-.7.3-1.1 1.1-2.3l1.1-1.1c.4-.4 1.2-1.5 1.6-2.7.4-1.1.7-1.9.7-2.7.4-1.9 1.2-2.6 2-3.8l1-1.1.5-.8c0-.4.4-.4.4-.7 1.5-2.7 3.4-5 5-7.7.3-.7.7-1.1 1-1.1.4-.4.4-.4.4-.8v-.4c.4-.4.4-1.1 1.2-1.5.8-.8 1.1-1.1 1.9-1.5 0-.4.4-.4.4-.8v-.4l1.1-1.5.4-.4.8-.7 1.5-1.6c0-.7 0-1.1 2-2.6l1-2c.8-1.5 2-3 3.9-4.5.7-.4 1.5-1.6 1.9-2.3 1.1-1.2 1.9-2.7 3.4-3.8.8-.4 1.2-.8 1.2-1.2.3-.7.7-1.5 2.6-2.7 1.2-.3 1.6-1.1 2.3-1.9l2.3-1.9c.8-.4 2.3-1.5 3.8-2.6 2-1.6 3.8-2.7 5-3.5l.4.4c0-.4.4-1.1 1.1-1.5 1.2-1.2 1.5-1.2 2.3-1.2.4 0 .8-.4 1.2-.7.7-.4 1.1-1.2 2.2-1.2 2-.7 3.9-1.9 5.8-3.4l.7-.8 5-2.7c1.1-.7 2.7-1.1 3.8-1.5.8-.4 1.2-.4 2-.7.3 0 .7-.4 1.5-.8 1.5-.8 3.4-2 5.7-2.7l.7-.4h.4c.4-.7.8-.7 2.3-.7h1.2l3-.8c2.3-1.1 3.8-1.5 5-1.5 1.1 0 1.9-.4 3.4-1.2l.4-.3c.4 0 .4-.4.4-.4l2.7-1.2h.3c1.2 0 2-.4 2.7-.7.8-.4 1.5-.8 2.3-.8 1.1 0 1.9-.4 2.7-.4 1.5-.4 2.6-.7 5.3-.7 2.7 2.2 5.4 1.5 7.3 1.1zm109.6 218.4c2 0 1.2 0 2.3.4-.4 1.1.4 1.5-1.1 1.5-2 0-1.2-.4-1.2-2zm-59.1-191c2.6 0 3.8-.3 5 4.3-3.5 2.3-4.7 2.3-8.5 0 0-1.5 0-2 1.2-2.7 0-.7 1.5-1.5 2.3-1.5zM71.2 43.4h-3c0-3.8.7-3 3.7-2.3-.7 1.2-.4.4-.7 2.3zM217 49c0-1.5 1.5-3.4 4.2-4.2 1.5 2.3 1.5 4.6-.8 6.1-1.5 1.2-3.4.4-3.4-1.9zm31.3 87.4c-6.1 0-1.1.4-4.6 1.2-8.4 1.5-5.3-6.1-1.9-6.1 2.7 0-.4 0 1.5.7 2 .4 5.8 0 8.8.4 3 .4 2-1.1 6.1 0 1.6.4 1.6.8 3 .8l7 .4s-.4 0-.4.4l-5.4 1.1c-1.9.4-.7.4-1.5.4-1.5.4.4.7-2.7.4-3.4-.8-6 .3-9.9.3zM28.8 74.2c1.9 1.5 1.1-.4 1.1 2.7H28c.4-2 .4-2 .8-2.7zm182.9 12.6c1.5.4 1.9.4 3 1.2-1.5 2.3-3 3-3-1.2zm36.2 4.2c.4-1.5 1.2-4.2 3-4.2h2v3.8c-2.7.4-2.3.4-5 .4zm-182.8 9.2c.7-2.3.3-2.3 3-2.7v2c-.8.3-1.9.3-3 .7zm105.3 1.9c2-.8 2.3-.8 2.3 1.9-3.4-.4-1.5 0-2.3-2zM19.6 121.9c-2.6 0-3.8-4.5.4-6 4.6-1.6 4.2 6-.4 6zm123 83.3c-3.5 0-5-5.8.3-7.7 2.3-.7 3.5.4 4.6 2-.4 1-1.1 2.2-1.5 3.4-1.2 1.1-2 2.3-3.4 2.3zm-28.3-73.3.8 1.1zm-56.5 15.6c-5 0-2.3-8.4 0-8.4 6.5 0 6.1 8.4 0 8.4zm144-.7c2.6-1.2 2.6-.8 3 1.9-3 0-2 .3-3-2zM36 168c-1.5 0-1.9-.7-1.5-2.3.4-1.1 2-1.5 2.7-2.2 1.1 1.9 1.1.3 1.1 3-.7 1.2-.7 1.5-2.3 1.5zm69.1 7v-2c2.7 0 1.6-.4 3.1.4-1.1 1.9.4 1.5-3 1.5zm152-.9c0 2.7.4 5-2.3 5-3 0-4.2-1.9-3-4.2 1.5-2.7 2.6-1.5 5.3-.8zM17.3 199.1c-1.1 0-1.5-.4-1.9-1.6 0-.4-1.1-7.2 2.7-7.2 4.2.4 4.2 8.8-.8 8.8zm179.5-1.2c0-1.5 1.1 0 .3 0 .4 0-.3 1.5-.3 0zm85.9 2c3 .3 3.4 1.4 1.1 3-1.9-1.6-1.1 0-1.1-3zM42.9 226.4c5 0 3.8 1.6 1.2 3.1-1.6-2.3-.8-.4-1.2-3zm103 6.5 2-.7c.4.7 1.1 1.5-.4 1.9-1.9 1.1-1.5-1.2-1.5-1.2zM117 67.7V67l-.7.3.8.4c-.8 1.6-.8.4.4 1.6l1.9.7h.3c2.3-.7 2.7 3.8 3.1 5.7 2 7.3 1.1-.3 5 9.2l3 6.1c2.3 3.8-.7 2.3 3 6.1l2.7 4.6c.8 2 1.6 2 2.3 3.4 1.2 2.7 0 1.6.8 3.5 0 0 1.1 1.1 1.1 1.5 2 2.3 1.6 2.7 3.1 5.4l5.3 6v-6.8l3.1-2c.8 2.8.4.8.4 3.5-.4 4.6 1.5 5.7.4 10.7 1.9-1.1 3-2.7 4.5-4.6 2.7-3.4 2.7-1.9 5.8-3.4 0 3.4-1.2 3.4-2.7 5.7-2 2.7 1.1-1.9-.4.8-.4.7 0 .4-1.1 1.1-1.6 1.5-3 2-3.5 4.6 3.5 0 4.6-.4 7.3.4 2.3.7 4.2 1.1 5.3 3-8.7 2-6.5 0-12.2-1.1.4 3.4-.4.4 1.2 2.7l6 15.2c1.2 2.3 3.1 4.2 3.9 6.5l1.9 3s0 .5.4.5l.7 1.5c1.2 2.3 3.5 3.8 4.6 6.1 4.6 7.3 3.5 2.7 4.6 7.6v.8l3 3.4c2.7 3.8 0 3.5 1.6 5.4 1.9 2.6 3.8 1.5 6 8.4 0 0 0 .4.5.4l3 5.7c1.6 3 3 6 5 8.4l.8.7c1.1 1.2 0-.3 1.1 1.2.8 1.1.8 1.9 1.1 3l1.6 2.7.7-8.8c.4-1.9-.3-1.5.4-3v-.4c.8-1.5 1.2-2.3 2.7-3 0 8.3.8 6 1.5 11 .4 1.5-.4 2-.4 3.8 1.6-.7 2.7-1.5 4.2-1.9l-4.2 5.8c3.5 0 2.3.7 5 1.1 0 1.5 2 2 3 3-1.9 0-3.4.4-4.1.4-1.2 0-2.7-.3-4.6-.3 1.9 3.4 3.4 8-2.3 4.2 0 3.8 1.1 7.6 0 9.9-2.7-1.2-2.7-5.4-2.3-6.9l-.8-4.6c-3 .8-2.6 3.8-6 4.2l3-8.4-6.1-1.1c-3.5-.8-3.5 0-4.2-3 3-.8 4.2-.5 8-.5l-3-4.5c-3.9-6.1-1.2-.4-5.8-8.8l-11-19.9-.4-.4-2-1.9c-1.9-3.4-1.1-5-4.5-6.8-3.9-2-2-.8-3-4.6-.5-2-2-2.3-2.8-4.6-.3-1.1-.7-1.5-1.1-2.3-1.2-1.9-2.3-2.3-3.4-4.6-.8-1.9-.4-3.8-1.2-4.5-.8-.8-1.1-.4-2.3-2-1.5-2.2-.4-3-2.7-7.6v-.4c-.7-1.5 0-1.5-1.1-3.4-1.5.8-.8-1.2-1.5 2.3-.4 2.3 1.9 5.3-1.6 7.6-1.1-2.3-1.1-2.7-1.1-5.7 0-1.5-.4-4.2-.4-6.5h.8l-.4-.8v.8c-2 .8-1.5 2.3-2.7 4.2-3 4.6-.4 6.1-4.2 10.3-2.6 2.7-1.5 1.2-2.6 4.6-.8 2.3-2 3.4-3.1 5-1.5 1.9-2 3.8-3 5.3-1.2 2-1.2.4-2 2-1.9 3 .4-1.2-.3 2.6-.8 2.7-3.1 1.9-4.6 3.8-2 1.9-.4 0-1.2 2.3l-7.6 12.6c-.8 1.5-.8 1.1-1.5 2.7-.4.7-.4.7-.4 1.1l-6.1 12.6c-.8 1.1-.4.8-.8 1.1l-4.2 6.2c-.7.7-1.1 1.5-1.9 2.6 3.8 0 5 0 8 .4-.7 3-1.1 2.3-4.2 3-2.3.4-3.8 1.2-6 1.2.7 2.7 0 0 .7 2l2.3 6.8c-4.6-.4-2-3-6.1-4.2-1.2 2.7.3-.4-.4 2.7l-.8 5c-.7 2.6 0 2.2-1.9 3-1.1-2.3 0-6.1 0-10-1.5 1.2-1.9 1.6-4.2 2 .4-2.7.8-4.2 2-6.1-2 0-3.5.3-4.3.3-1.1 0-2.7-.3-4.6-.3.8-.8 0 0 1.2-.8l1.5-.8c1.2-.7 0 .4.4-.4v-.7c2.7-.8 1.5-1.2 5-1.2-1.2-1.5-2.3-2.6-3.1-4.2 2.3.4 3 1.2 4.6 2 0-2.3-.4-2.3-.4-3.5.4-3.4 1.5-3.4 1.5-11.4 3 1.1 2.7 5.3 3.5 7.6.3 1.1.3.4.3 1.9v5.3c2-1.9 2.7-5.3 4.6-7.6 3-3.8 5.4-10 6.9-12.2 1.1-2 .4.4 1.1-2.3l2.7-5.7c1.5-1.6 1.2-.4 2.3-2 2.3-2.2 0-3.4 5-9.1 1.5-1.5 0-1.1 1.1-3.8.4-1.2 2-2 3-3.4L138 147l1.1-3.4c.8-3-.4-.4 1.5-2.7 2.7-3.4-.3-1.9 1.6-5.7h-2.3c-5.4 1.1-.4 1.1-6.1.4.7-1.2.7-1.2 1.9-2l2.7-1.5c2.2-1.9 2.2-.7 5.3-1.1-1.5-2-2-1.5-4.2-2.7l-1.5-.7c-2.3-1.2-1.2.3-2.7-1.6 6.1 0 6.9 1.6 11.5 2-2-2-3.5-6.2-5.4-7.7-1.1-.8-.4 0-1.9-.8-2.3-1.1-.4.4-2-1.9l-1.8-5c-.8-2.6 0-1.8-2.3-3.4-3.4-2.6-1.5-3.4-3.8-6.4-1.6-2-1.2-3.9-1.6-5.4-.7-3.8-3.8-1.9-3.8-8-6-.4-.4-5.7-7.2-9.2 0-1.9.4-3 .4-4.2 0-1.1-1.2-2.3-2.3-3 .4 2.6 1.1 2.3 1.1 7.6 0 2.3-.7 6.5-1.5 8.4l-1.2-3.8c-1.1-3.8-1.1-1.5-1.1-6.5 0-4.6.4-1.5 1.1-4.6-3.8.4-2.6 2.7-5.3 5.4l-2.7 1.9c0-1.6.4-2.3.4-3 1.2-4.3 0 1 2.3-4.7l.4-.7a10 10 0 0 0 1.1-3c-2.6.7 0 .3-1.9.7l-5.7 1.9c1.9-2.3 5.3-2.7 6.9-5-3-.7-9.2-5-11.5-7.2l7.6 1.9c0-4.2-1.1-2.7-2.2-5.7-.8-1.6-2-4.6-2-5.8l4.2 3.5c4.2 3.8 1.2 3.8 6.2 5l.7-4.6c.4-3.1-1.1-2 1.2-3.5.7 2.7 1.9 6.1 1.9 9.2 5-3.5 1.9-4.6 6-6.5 1.2-.8 2-.8 3.1-1.2 2.3 5-2.6 5.8-2.6 5.8-3.5 1.9-.8.7-1.2 3-.4 2.3-1.1.8-2.3 3 2 .8 3 .5 5.4 0 3.4-.7 2.3 0 6 0-1.8 2.7-7.2 4.7-8.7 4.7-1.5-.8-3-1.2-3.8-1.6zm-19 197c.4 0 .4-.4 0 0zm45-87.4 1.2-.4-1.2.4h-.3l.3.8zm-8-153.5c0-1.5.8-3 2-3.8 1.5-1.5 1.8-.8 3.7 0-.3 5-2.2 3.8-5.7 3.8zM81.5 258.2c-1.6 0-2-.7-1.6-2.3.4-1.1 2-1.5 2.7-2.3 1.2 2 1.2.4 1.2 3.1-1.2 1.1-1.2 1.5-2.3 1.5zm48.5 2.3c-1.6 0-2-.4-1.6-1.9.4-1.1 2-1.5 2.7-2.3 1.1 2 1.1.4 1.1 3-1.1.8-.7 1.2-2.2 1.2zm64.5 19.1c-1.6 0-2-.8-1.6-2.3.4-1.1 2-1.5 2.7-2.3 1.2 2 1.2.4 1.2 3-.8 1.2-.8 1.6-2.3 1.6zm29.8-97.3c-1.6 0-2-.8-1.6-2.3.4-1.2 2-1.6 2.7-2.3 1.1 1.9 1.1.4 1.1 3-.7 1.2-.7 1.6-2.2 1.6zm2.2 85.5c2 .4 1.2 0 2.7.7-.4.8 0 1.2-1.5 1.2s-.8-.4-1.2-2zm-84 11.8c2 0 1.2 0 2.3.4-.3 1.1.4 1.5-1.1 1.5-2 0-1.1-.4-1.1-1.9z" style="clip-rule:evenodd;fill:#181742;fill-opacity:1;fill-rule:evenodd"/></svg>
